/* XPM */
static char * close_preli.ht_xpm[] = {
"22 24 42 1",
" 	c None",
".	c #33393B",
"#	c #4A3C40",
"$	c #8F333B",
"%	c #CA3640",
"&	c #DE3944",
"*	c #C93641",
"=	c #8E333B",
"-	c #70363D",
";	c #DE3A44",
">	c #F04D54",
",	c #F25056",
"'	c #DD3A44",
")	c #70363C",
"!	c #E8414A",
"~	c #E7414A",
"{	c #EB4E54",
"]	c #EF4F55",
"^	c #EC4E54",
"/	c #812B2E",
"(	c #8E2F33",
"_	c #E84D52",
":	c #822B2E",
"<	c #F04E54",
"[	c #8F333C",
"}	c #79282B",
"|	c #8D2F32",
"1	c #C83840",
"2	c #DF3A45",
"3	c #8C2E32",
"4	c #E74C52",
"5	c #E64C52",
"7	c #CA3641",
"8	c #C83740",
"9	c #8E323B",
"0	c #8E333C",
"a	c #493B3F",
"b	c #DC3A43",
"c	c #483B3F",
"d	c #6F363C",
"e	c #6D363C",
"f	c #C83641",
"......................",
"......................",
"......................",
"......................",
"......................",
".......#$%&&*=#.......",
"......-;>,,,,>')......",
".....-!,,,,,,,,~).....",
"....#;,,{],,]{,,'#....",
"....$>,^/(__(:^,<[....",
"....%,,](}||}(],,1....",
"....2,,,_(}}34,,,;....",
"....;,,,_(}}35,,,'....",
"....7,,](}||}(],,8....",
"....9>,^:(__(:^,>0....",
"....a',,^],,]^,,bc....",
".....d~,,,,,,,,~e.....",
"......d'<,,,,>be......",
".......a=f;;f0c.......",
"......................",
"......................",
"......................",
"......................",
"......................"};
