/* XPM */
static char * close_pressed_xpm[] = {
"22 24 51 1",
" 	c None",
".	c #33393B",
"#	c #3C3C3F",
"%	c #483A3F",
"&	c #8A3139",
"*	c #B82B37",
"=	c #CF2836",
"-	c #B72C37",
";	c #8A313A",
">	c #6E353C",
",	c #CD2835",
"'	c #D52735",
")	c #6E353B",
"~	c #6E343B",
"{	c #D42735",
"]	c #3A3B3E",
"^	c #47393E",
"/	c #CF2634",
"(	c #D22734",
"_	c #CC2835",
":	c #47393D",
"[	c #8A3039",
"}	c #D02634",
"|	c #72151C",
"1	c #7D171F",
"2	c #CC2533",
"3	c #893139",
"4	c #B92B36",
"5	c #6A131A",
"6	c #7C171F",
"7	c #B72B37",
"8	c #CE2836",
"9	c #7B161F",
"0	c #CB2533",
"b	c #CA2532",
"c	c #39393C",
"d	c #B82B36",
"f	c #893038",
"g	c #883039",
"h	c #45373C",
"i	c #CB2836",
"j	c #45383B",
"l	c #6C3339",
"m	c #6A3339",
"n	c #CB2835",
"o	c #45363A",
"p	c #882F38",
"q	c #B62A37",
"r	c #883038",
"s	c #45373A",
"u	c #37383B",
"......................",
"......................",
"......................",
"......................",
"......................",
".......%&*==-;%.......",
"......>,'''''',)......",
".....~{''''''''{).....",
"..]]^,''/(''(/''_:]]..",
"..]][''}|1221|}''3]]..",
"....4''(156651(''7....",
"....8'''215590''',....",
"....,'''21559b'''_....",
"..ccd''(156651(''7cc..",
"..ccf''}|1221|}''gcc..",
"....h,''}(''(}''ij....",
".....l{''''''''{m.....",
"......l_''''''nm......",
".......opq88qrs.......",
"......................",
"......................",
"......................",
"......................",
"......................"};
