/* XPM */
static char * maximize_active_xpm[] = {
"22 24 32 1",
" 	c None",
".	c #33393B",
"#	c #3A4A3E",
"$	c #288630",
"%	c #23BD2F",
"&	c #24D033",
"*	c #24D032",
"=	c #23BC30",
"-	c #28852F",
";	c #2E6A35",
">	c #26D032",
",	c #36E746",
"'	c #39EA49",
")	c #25D032",
"!	c #2F6A35",
"~	c #2CDB3A",
"{	c #2BDB3A",
"]	c #25CF32",
"^	c #3A493E",
"/	c #298430",
"(	c #24BC2F",
"_	c #26D033",
"<	c #23BD30",
"[	c #24BB2F",
"}	c #28842F",
"|	c #39493D",
"1	c #25CE31",
"2	c #38473D",
"3	c #2BDB39",
"4	c #2E6835",
"5	c #39483D",
"6	c #24BB30",
"......................",
"......................",
"......................",
"......................",
"......................",
".......#$%&*=-#.......",
"......;>,'''',)!......",
".....;~''''''''{!.....",
"....#>'''''''''']^....",
"....$,'''''''''',/....",
"....%''''''''''''(....",
"...._'''''''''''')....",
"....>'''''''''''']....",
"....<''''''''''''[....",
"....},'''''''''',/....",
"....|)''''''''''12....",
".....;{''''''''34.....",
"......;],'''',14......",
".......5}6))6/2.......",
"......................",
"......................",
"......................",
"......................",
"......................"};
