/* XPM */
static char * maximize_prelight_xpm[] = {
"22 24 39 1",
" 	c None",
".	c #33393B",
"#	c #3A4A3E",
"$	c #288630",
"%	c #23BD2F",
"&	c #24D033",
"*	c #24D032",
"=	c #23BC30",
"-	c #28852F",
";	c #2E6A35",
">	c #26D032",
",	c #36E746",
"'	c #39EA49",
")	c #25D032",
"!	c #2F6A35",
"~	c #2CDB3A",
"{	c #2BDB3A",
"]	c #25CF32",
"^	c #3A493E",
"/	c #34D643",
"(	c #1F7F28",
"_	c #1C7524",
":	c #269D31",
"<	c #298430",
"[	c #24BC2F",
"}	c #26D033",
"|	c #34D542",
"1	c #35D843",
"2	c #1F8028",
"4	c #23BD30",
"5	c #24BB2F",
"6	c #28842F",
"7	c #39493D",
"8	c #25CE31",
"9	c #38473D",
"0	c #2BDB39",
"a	c #2E6835",
"b	c #39483D",
"c	c #24BB30",
"......................",
"......................",
"......................",
"......................",
"......................",
".......#$%&*=-#.......",
"......;>,'''',)!......",
".....;~''''''''{!.....",
"....#>'''''''''']^....",
"....$,'''/(__:'',<....",
"....%'''/'/(__'''[....",
"....}'''(|'12_''')....",
"....>'''_(|'12''']....",
"....4'''__(/'/'''5....",
"....6,'':__(/''',<....",
"....7)''''''''''89....",
".....;{''''''''0a.....",
"......;],'''',8a......",
".......b6c))c<9.......",
"......................",
"......................",
"......................",
"......................",
"......................"};
